<svg xmlns="http://www.w3.org/2000/svg" xml:space="preserve" fill-rule="evenodd" clip-rule="evenodd" image-rendering="optimizeQuality" shape-rendering="geometricPrecision" text-rendering="geometricPrecision" viewBox="0 0 2279 365"><path fill="#2a3142" d="m0 188 51-88 51-89h204l51 89 51 88-51 89-51 88H102l-51-88-51-89zm111 104V84c0-14 12-26 26-26v260c-14 0-26-11-26-26zm40 26V58h146v260H151zm35-104v31h-18v-83h34c11 0 16 4 16 14v23c0 8-3 12-10 14l14 32h-19l-14-31h-3zm0-39v25h13l1-3v-18c0-3-2-4-4-4h-10zm-35 130v-17h83v17h-83zm0-31v-16h83v16h-83zm0-126v-17h83v17h-83zm0-30v-16h83v16h-83zm0-30V71h83v17h-83zm-29-8-4-3v-3l6 4a30 30 0 0 1 5-4l2-1v4a28 28 0 0 0-5 3 30 30 0 0 0 5 3v3a24 24 0 0 1-4-2l-1-1-2-1-6 4v-3l4-3zm404 144v129h-63V21h128c40 0 60 17 60 52v98c0 29-14 46-41 51l58 131h-68l-53-129h-21zm0-157v112h46c6 0 10-1 12-3s3-6 3-11V81c0-5-1-9-3-11s-6-3-12-3h-46zm280 27h61v259h-63v-22c-5 15-18 22-38 22h-17c-37 0-56-17-56-52V147c0-35 19-53 56-53h17c22 0 35 9 40 26V94zm-35 213h16c12 0 17-6 17-17V158c0-11-5-17-17-17h-16c-6 0-10 1-12 3-3 2-4 5-4 11v138c0 5 1 9 4 11 2 2 6 3 12 3zm334-213-60 125 60 134h-65l-59-134 59-125h65zM914 353V1h62v352h-62zm407-259-61 125 61 134h-66l-58-134 59-125h65zm-191 259V1h62v352h-62zm213-301V0h66v52h-66zm64 301h-62V94h62v259zM1562 1h63v352h-62v-25c-4 17-17 25-39 25h-17c-37 0-56-17-56-52V146c0-35 19-52 56-52h17c20 0 33 7 38 22V1zm-34 306h17c11 0 17-6 17-17V158c0-6-1-11-4-14-2-2-7-4-13-4h-17c-5 0-9 1-12 3-2 2-3 6-3 12v138c0 5 1 9 3 11 3 2 7 3 12 3zm142-255V0h66v52h-66zm64 301h-62V94h62v259zm42 0v-71h68v71h-68zM1994 1h62v352h-61v-25c-5 17-18 25-39 25h-18c-37 0-56-17-56-52V146c0-35 19-52 56-52h18c19 0 32 7 38 22V1zm-34 306h16c12 0 18-6 18-17V158c0-6-2-11-4-14-3-2-7-4-14-4h-16c-6 0-10 1-12 3s-3 6-3 12v138c0 5 1 9 3 11s6 3 12 3zm201-213h58c40 0 59 18 59 53v94h-117v53c0 6 1 10 3 12s6 3 13 3h25c6 0 10-1 12-3s3-6 3-12v-19h61v26c0 35-20 52-60 52h-57c-40 0-61-17-61-52V147c0-35 21-53 61-53zm0 109h57v-50c0-6-1-9-3-11s-6-3-12-3h-26c-6 0-10 1-13 3-2 2-3 5-3 11v50z"/></svg>